<svg xmlns="http://www.w3.org/2000/svg" xmlns:xlink="http://www.w3.org/1999/xlink" width="18" height="18" viewBox="0 0 18 18" fill="none">
<path d="M10.692 16.308L9.00001 18L7.30801 16.308C3.98251 15.54 1.5 12.558 1.5 9C1.5 4.86001 4.86001 1.5 9.00001 1.5C13.14 1.5 16.5 4.86001 16.5 9C16.5 12.558 14.0175 15.54 10.692 16.308ZM4.51725 11.562C5.61826 13.2045 7.27125 14.25 9.12001 14.25C10.968 14.25 12.6217 13.2053 13.722 11.562C13.6834 11.526 13.6445 11.4904 13.6051 11.4553C13.5657 11.4202 13.5259 11.3855 13.4857 11.3514C13.4455 11.3172 13.4049 11.2835 13.3639 11.2503C13.323 11.2171 13.2816 11.1844 13.2398 11.1521C13.1981 11.1199 13.1559 11.0881 13.1134 11.0569C13.0709 11.0256 13.028 10.9949 12.9848 10.9646C12.9416 10.9344 12.898 10.9047 12.8541 10.8754C12.8101 10.8462 12.7659 10.8175 12.7213 10.7894C12.6766 10.7612 12.6317 10.7335 12.5865 10.7064C12.5412 10.6793 12.4956 10.6527 12.4497 10.6267C12.4039 10.6006 12.3577 10.5751 12.3112 10.5502C12.2647 10.5252 12.2179 10.5008 12.1709 10.477C12.1238 10.4531 12.0765 10.4298 12.0289 10.407C11.9813 10.3843 11.9334 10.3621 11.8853 10.3405C11.8372 10.3189 11.7888 10.2978 11.7402 10.2774C11.6915 10.2569 11.6427 10.237 11.5936 10.2177C11.5445 10.1983 11.4952 10.1796 11.4457 10.1614C11.3961 10.1432 11.3464 10.1256 11.2964 10.1087C11.2465 10.0916 11.1964 10.0752 11.146 10.0594C11.0957 10.0436 11.0452 10.0284 10.9945 10.0138C10.9438 9.99913 10.8929 9.98508 10.8419 9.97165C10.7909 9.95822 10.7397 9.94539 10.6884 9.93317C10.6371 9.92094 10.5856 9.9093 10.534 9.8983C10.4824 9.88728 10.4307 9.87687 10.3789 9.86706C10.327 9.85725 10.2751 9.84808 10.223 9.8395C10.171 9.83092 10.1188 9.82296 10.0666 9.81561C10.0143 9.80825 9.962 9.80151 9.9096 9.7954C9.85718 9.78928 9.80471 9.78378 9.75219 9.77889C9.69967 9.774 9.64707 9.76973 9.59444 9.76609C9.54181 9.76244 9.48913 9.75941 9.43643 9.75701C9.38374 9.7546 9.331 9.7528 9.27827 9.75165C9.22552 9.75047 9.17276 9.74992 9.12001 9.75001C9.06724 9.74992 9.01447 9.75047 8.96172 9.75163C8.90895 9.75279 8.85622 9.75456 8.80352 9.75697C8.7508 9.75936 8.69812 9.76239 8.64549 9.76604C8.59284 9.76968 8.54025 9.77395 8.48771 9.77884C8.43517 9.78371 8.3827 9.78921 8.33028 9.79533C8.27786 9.80144 8.22553 9.80818 8.17329 9.81552C8.12103 9.82287 8.06887 9.83083 8.01681 9.83941C7.96474 9.84797 7.91278 9.85715 7.86094 9.86696C7.80909 9.87675 7.75735 9.88715 7.70575 9.89818C7.65414 9.90918 7.60268 9.92082 7.55136 9.93305C7.50001 9.94527 7.44882 9.9581 7.39781 9.97153C7.34677 9.98496 7.29591 9.99899 7.24522 10.0136C7.19452 10.0283 7.144 10.0435 7.09366 10.0593C7.04331 10.0751 6.99316 10.0915 6.94321 10.1085C6.89325 10.1255 6.8435 10.1431 6.79397 10.1613C6.74442 10.1794 6.69509 10.1982 6.64601 10.2175C6.5969 10.2368 6.54803 10.2567 6.49941 10.2772C6.45077 10.2977 6.40238 10.3188 6.35425 10.3404C6.30612 10.362 6.25824 10.3842 6.21064 10.4069C6.16302 10.4297 6.11568 10.453 6.06862 10.4768C6.02155 10.5007 5.97476 10.5251 5.92828 10.5501C5.88179 10.575 5.83559 10.6005 5.78971 10.6266C5.74382 10.6526 5.69824 10.6792 5.65297 10.7063C5.60771 10.7334 5.56278 10.7611 5.51817 10.7893C5.47355 10.8174 5.42927 10.8461 5.38533 10.8754C5.34138 10.9046 5.29781 10.9343 5.25456 10.9646C5.21132 10.9948 5.16843 11.0255 5.12593 11.0568C5.08341 11.0881 5.04127 11.1198 4.99951 11.1521C4.95774 11.1843 4.91634 11.217 4.87535 11.2503C4.83436 11.2835 4.79375 11.3172 4.75355 11.3514C4.71333 11.3855 4.67354 11.4202 4.63416 11.4553C4.59477 11.4904 4.5558 11.526 4.51725 11.562ZM9.00001 8.25C9.03681 8.25 9.07362 8.24908 9.11041 8.24729C9.14719 8.24548 9.18389 8.24277 9.22054 8.23917C9.25717 8.23555 9.29372 8.23105 9.33014 8.22565C9.36656 8.22024 9.40284 8.21395 9.43895 8.20677C9.47505 8.19958 9.51098 8.19152 9.5467 8.18257C9.58242 8.17362 9.61789 8.16381 9.65314 8.15313C9.68836 8.14244 9.72333 8.13089 9.75801 8.11848C9.79267 8.10607 9.827 8.09282 9.86103 8.07874C9.89505 8.06464 9.92871 8.04971 9.962 8.03398C9.9953 8.01823 10.0282 8.00167 10.0607 7.98432C10.0931 7.96696 10.1251 7.94882 10.1567 7.9299C10.1883 7.91095 10.2194 7.89126 10.25 7.8708C10.2807 7.85034 10.3108 7.82916 10.3403 7.80722C10.3699 7.78529 10.3989 7.76263 10.4274 7.73928C10.4558 7.71591 10.4837 7.69186 10.511 7.66714C10.5383 7.64241 10.5649 7.61703 10.591 7.591C10.617 7.56494 10.6424 7.5383 10.6671 7.51101C10.6919 7.48373 10.7159 7.45585 10.7393 7.4274C10.7626 7.39892 10.7853 7.3699 10.8072 7.34033C10.8291 7.31075 10.8503 7.28065 10.8708 7.25003C10.8913 7.21941 10.911 7.18832 10.9299 7.15673C10.9488 7.12514 10.967 7.09311 10.9843 7.06065C11.0017 7.02816 11.0182 6.99529 11.034 6.962C11.0497 6.9287 11.0646 6.89506 11.0787 6.86105C11.0928 6.82701 11.1061 6.79267 11.1185 6.758C11.1309 6.72334 11.1424 6.68838 11.1531 6.65315C11.1638 6.61791 11.1736 6.58243 11.1826 6.54671C11.1915 6.511 11.1996 6.47507 11.2068 6.43896C11.214 6.40284 11.2202 6.36657 11.2257 6.33015C11.2311 6.29373 11.2356 6.25718 11.2392 6.22055C11.2428 6.18388 11.2455 6.14718 11.2473 6.11041C11.2491 6.07363 11.25 6.03683 11.25 6C11.25 5.96317 11.2491 5.92638 11.2473 5.88961C11.2455 5.85282 11.2428 5.8161 11.2392 5.77946C11.2356 5.74281 11.2311 5.70629 11.2257 5.66986C11.2202 5.63344 11.214 5.59716 11.2068 5.56106C11.1996 5.52493 11.1915 5.48902 11.1826 5.4533C11.1736 5.41758 11.1638 5.38209 11.1531 5.34687C11.1424 5.31162 11.1309 5.27666 11.1185 5.242C11.1061 5.20733 11.0928 5.17298 11.0787 5.13897C11.0646 5.10494 11.0497 5.07129 11.034 5.038C11.0182 5.00471 11.0017 4.97184 10.9843 4.93937C10.967 4.90689 10.9488 4.87484 10.9299 4.84327C10.911 4.81168 10.8913 4.78059 10.8708 4.74997C10.8503 4.71935 10.8291 4.68925 10.8072 4.65969C10.7853 4.6301 10.7626 4.60108 10.7393 4.57262C10.7159 4.54414 10.6919 4.51628 10.6671 4.489C10.6424 4.46172 10.617 4.43505 10.591 4.40902C10.5649 4.38297 10.5383 4.35759 10.511 4.33287C10.4837 4.30812 10.4558 4.28408 10.4274 4.26073C10.3989 4.23737 10.3699 4.21473 10.3403 4.19279C10.3108 4.17086 10.2807 4.14966 10.25 4.1292C10.2194 4.10873 10.1883 4.08903 10.1567 4.07012C10.1251 4.05118 10.0931 4.03304 10.0607 4.01568C10.0282 3.99831 9.9953 3.98177 9.962 3.96603C9.92871 3.95028 9.89505 3.93536 9.86103 3.92128C9.827 3.90718 9.79267 3.89393 9.75801 3.88154C9.72333 3.86913 9.68836 3.85758 9.65314 3.84689C9.61789 3.8362 9.58242 3.82638 9.5467 3.81743C9.51098 3.80848 9.47505 3.80041 9.43895 3.79324C9.40284 3.78605 9.36656 3.77976 9.33014 3.77436C9.29372 3.76895 9.25717 3.76445 9.22054 3.76085C9.18389 3.75722 9.14719 3.75452 9.11041 3.75272C9.07362 3.7509 9.03681 3.75 9.00001 3.75C8.96318 3.75 8.92637 3.7509 8.8896 3.75272C8.85282 3.75452 8.8161 3.75722 8.77947 3.76085C8.74282 3.76445 8.70627 3.76895 8.66985 3.77436C8.63343 3.77976 8.59715 3.78605 8.56104 3.79324C8.52494 3.80041 8.48903 3.80848 8.45331 3.81743C8.41757 3.82638 8.3821 3.8362 8.34687 3.84689C8.31163 3.85758 8.27666 3.86913 8.242 3.88154C8.20734 3.89393 8.17299 3.90718 8.13896 3.92128C8.10493 3.93536 8.07128 3.95028 8.03801 3.96603C8.00471 3.98177 7.97183 3.99831 7.93936 4.01568C7.90687 4.03304 7.87485 4.05118 7.84328 4.07012C7.81169 4.08903 7.78059 4.10873 7.74997 4.1292C7.71935 4.14966 7.68924 4.17086 7.65967 4.19279C7.63011 4.21473 7.60109 4.23737 7.57263 4.26073C7.54415 4.28408 7.51627 4.30812 7.48899 4.33287C7.46171 4.35759 7.43504 4.38297 7.40901 4.40902C7.38296 4.43505 7.35758 4.46172 7.33286 4.489C7.30813 4.51628 7.28408 4.54414 7.26074 4.57262C7.23736 4.60108 7.21472 4.6301 7.19278 4.65969C7.17084 4.68925 7.14966 4.71935 7.1292 4.74997C7.10874 4.78059 7.08903 4.81168 7.07012 4.84327C7.05117 4.87484 7.03303 4.90689 7.01568 4.93937C6.99831 4.97184 6.98177 5.00471 6.96602 5.038C6.95027 5.07129 6.93537 5.10494 6.92127 5.13897C6.90717 5.17298 6.89393 5.20733 6.88152 5.242C6.86911 5.27666 6.85758 5.31162 6.8469 5.34687C6.83619 5.38209 6.82636 5.41758 6.81743 5.4533C6.80847 5.48902 6.8004 5.52493 6.79323 5.56106C6.78604 5.59716 6.77975 5.63344 6.77435 5.66986C6.76894 5.70629 6.76444 5.74281 6.76083 5.77946C6.75721 5.8161 6.75451 5.85282 6.75271 5.88961C6.7509 5.92638 6.75001 5.96317 6.75001 6C6.75001 6.03683 6.7509 6.07363 6.75271 6.11041C6.75451 6.14718 6.75721 6.18388 6.76083 6.22055C6.76444 6.25718 6.76894 6.29373 6.77435 6.33015C6.77975 6.36657 6.78604 6.40284 6.79323 6.43896C6.8004 6.47507 6.80847 6.511 6.81743 6.54671C6.82636 6.58243 6.83619 6.61791 6.8469 6.65315C6.85758 6.68838 6.86911 6.72334 6.88152 6.758C6.89393 6.79267 6.90717 6.82701 6.92127 6.86105C6.93537 6.89506 6.95027 6.9287 6.96602 6.962C6.98177 6.99529 6.99831 7.02816 7.01568 7.06065C7.03303 7.09311 7.05117 7.12514 7.07012 7.15673C7.08903 7.18832 7.10874 7.21941 7.1292 7.25003C7.14966 7.28065 7.17084 7.31075 7.19278 7.34033C7.21472 7.3699 7.23736 7.39892 7.26074 7.4274C7.28408 7.45585 7.30813 7.48373 7.33286 7.51101C7.35758 7.5383 7.38296 7.56494 7.40901 7.591C7.43504 7.61703 7.46171 7.64241 7.48899 7.66714C7.51627 7.69186 7.54415 7.71591 7.57263 7.73928C7.60109 7.76263 7.63011 7.78529 7.65967 7.80722C7.68924 7.82916 7.71935 7.85034 7.74997 7.8708C7.78059 7.89126 7.81169 7.91095 7.84328 7.9299C7.87485 7.94882 7.90687 7.96696 7.93936 7.98432C7.97183 8.00169 8.00471 8.01823 8.03801 8.03398C8.07128 8.04971 8.10493 8.06464 8.13896 8.07874C8.17299 8.09282 8.20734 8.10607 8.242 8.11848C8.27666 8.13089 8.31163 8.14244 8.34687 8.15313C8.3821 8.16381 8.41757 8.17362 8.45331 8.18257C8.48903 8.19152 8.52494 8.19958 8.56104 8.20677C8.59715 8.21395 8.63343 8.22024 8.66985 8.22565C8.70627 8.23105 8.74282 8.23555 8.77947 8.23917C8.8161 8.24277 8.85282 8.24548 8.8896 8.24729C8.92637 8.24908 8.96318 8.25 9.00001 8.25Z"   fill="#00ADB5" >
</path>
</svg>
